<svg version="1.1" id="Layer_1" xmlns="http://www.w3.org/2000/svg" xmlns:xlink="http://www.w3.org/1999/xlink" x="0px" y="0px"
	 width="100%" viewBox="0 0 256 256" enable-background="new 0 0 256 256" xml:space="preserve">
<path fill="#000000" opacity="1.000000" stroke="none" 
	d="
M202.268982,176.530075 
	C196.848511,161.697815 191.678802,147.185928 186.295242,132.753815 
	C185.136154,129.646530 185.409744,127.314919 187.268936,124.514381 
	C202.890961,100.982437 218.355682,77.346016 233.855286,53.732876 
	C238.961411,45.953880 244.035400,38.153786 249.113083,30.356176 
	C250.008530,28.981030 250.793030,27.517979 252.483932,26.743904 
	C253.930542,28.092674 253.315964,29.852808 253.317291,31.392056 
	C253.374374,97.176590 253.355011,162.961243 253.492767,228.745575 
	C253.501862,233.089523 252.274597,234.670288 247.829819,234.457275 
	C241.017136,234.130753 234.175308,234.273087 227.349976,234.414673 
	C224.461166,234.474609 222.871826,233.552399 221.853882,230.681992 
	C215.481369,212.713013 208.933212,194.806320 202.268982,176.530075 
z"/>
<path fill="#000000" opacity="1.000000" stroke="none" 
	d="
M22.227890,129.869751 
	C18.564859,149.662643 14.966309,169.029846 11.351824,188.394073 
	C8.907582,201.488861 6.440911,214.579437 3.892702,228.159927 
	C2.034607,226.078232 2.675016,224.184601 2.673913,222.487320 
	C2.632208,158.326904 2.692006,94.166344 2.535062,30.006294 
	C2.522785,24.987394 3.869406,23.312784 8.976047,23.537533 
	C17.957727,23.932831 26.969610,23.610844 35.968483,23.658203 
	C41.460930,23.687109 41.803341,24.219889 40.845081,29.370411 
	C34.639568,62.724339 28.468163,96.084618 22.227890,129.869751 
z"/>
<path fill="#000000" opacity="1.000000" stroke="none" 
	d="
M122.826378,191.420761 
	C127.663063,205.739609 132.342072,219.696960 137.264557,234.380569 
	C130.535629,234.380569 124.431587,234.380585 118.327545,234.380569 
	C108.668724,234.380554 99.009834,234.403778 89.351120,234.371857 
	C83.453331,234.352356 83.402992,234.246002 84.436569,228.495773 
	C87.862801,209.434143 91.455208,190.399750 94.594437,171.290924 
	C95.469490,165.964310 97.570488,164.287125 102.960907,164.520691 
	C113.421188,164.973953 113.404106,164.652298 116.832275,174.661774 
	C118.711983,180.150131 120.719055,185.594864 122.826378,191.420761 
z"/>
<path fill="#000000" opacity="1.000000" stroke="none" 
	d="
M137.758484,68.683807 
	C134.257690,75.332054 130.752487,81.566956 127.668159,88.003540 
	C125.818619,91.863297 123.590508,94.215538 118.948944,93.398109 
	C116.072723,92.891579 112.992477,94.019905 109.747948,92.313225 
	C111.464050,82.621666 113.132256,72.881416 114.923920,63.163940 
	C117.112953,51.291222 119.454758,39.446503 121.604897,27.566944 
	C121.962555,25.590900 122.271843,23.782131 124.630539,23.769354 
	C136.566772,23.704683 148.503525,23.739599 161.656021,23.739599 
	C153.429306,39.210403 145.680283,53.782887 137.758484,68.683807 
z"/>
</svg>